<svg width="147" height="37" viewBox="0 0 147 37" fill="none" xmlns="http://www.w3.org/2000/svg">
<path d="M0.323953 9.91075V0.167035H2.57211V8.07336H7.44312V9.91075H0.323953Z" fill="black"/>
<path d="M7.47673 9.91075L11.8065 0.167035H14.0269L18.3706 9.91075H16.0114L12.4588 1.30844H13.3469L9.7804 9.91075H7.47673ZM9.64163 7.82281L10.2384 6.1107H15.2343L15.8449 7.82281H9.64163Z" fill="black"/>
<path d="M23.3086 9.91075V0.167035H25.5568V9.91075H23.3086Z" fill="black"/>
<path d="M27.8622 9.91075V0.167035H29.7218L35.4532 7.18251H34.5511V0.167035H36.7715V9.91075H34.9258L29.1805 2.89527H30.0826V9.91075H27.8622Z" fill="black"/>
<path d="M39.0699 9.91075V0.167035H43.4829C44.5376 0.167035 45.4674 0.371189 46.2723 0.779497C47.0772 1.17852 47.7063 1.73995 48.1597 2.46377C48.613 3.18759 48.8397 4.04596 48.8397 5.03889C48.8397 6.02254 48.613 6.88092 48.1597 7.61401C47.7063 8.33783 47.0772 8.9039 46.2723 9.3122C45.4674 9.71123 44.5376 9.91075 43.4829 9.91075H39.0699ZM41.318 8.05944H43.3719C44.0195 8.05944 44.5793 7.9388 45.0511 7.69753C45.5322 7.44698 45.9023 7.09435 46.1613 6.63964C46.4296 6.18494 46.5638 5.65135 46.5638 5.03889C46.5638 4.41715 46.4296 3.88356 46.1613 3.43814C45.9023 2.98343 45.5322 2.63544 45.0511 2.39417C44.5793 2.14362 44.0195 2.01834 43.3719 2.01834H41.318V8.05944Z" fill="black"/>
<path d="M52.6029 4.09236H57.2796V5.84623H52.6029V4.09236ZM52.7694 8.1012H58.0567V9.91075H50.5351V0.167035H57.8763V1.97658H52.7694V8.1012Z" fill="black"/>
<path d="M59.8455 9.91075V0.167035H64.0504C64.9201 0.167035 65.6694 0.31087 66.2986 0.598542C66.9277 0.876933 67.4134 1.2806 67.7557 1.80955C68.098 2.33849 68.2692 2.96951 68.2692 3.70261C68.2692 4.42643 68.098 5.05281 67.7557 5.58175C67.4134 6.1107 66.9277 6.51901 66.2986 6.80668C65.6694 7.08507 64.9201 7.22427 64.0504 7.22427H61.0945L62.0937 6.20814V9.91075H59.8455ZM62.0937 6.45869L61.0945 5.38688H63.9255C64.6194 5.38688 65.1375 5.2384 65.4798 4.94145C65.8221 4.6445 65.9933 4.23155 65.9933 3.70261C65.9933 3.16439 65.8221 2.7468 65.4798 2.44985C65.1375 2.1529 64.6194 2.00442 63.9255 2.00442H61.0945L62.0937 0.932612V6.45869Z" fill="black"/>
<path d="M71.9419 4.09236H76.6187V5.84623H71.9419V4.09236ZM72.1085 8.1012H77.3958V9.91075H69.8742V0.167035H77.2154V1.97658H72.1085V8.1012Z" fill="black"/>
<path d="M79.1846 9.91075V0.167035H81.0442L86.7756 7.18251H85.8736V0.167035H88.094V9.91075H86.2483L80.503 2.89527H81.405V9.91075H79.1846Z" fill="black"/>
<path d="M90.3923 9.91075V0.167035H94.8054C95.8601 0.167035 96.7899 0.371189 97.5948 0.779497C98.3997 1.17852 99.0288 1.73995 99.4821 2.46377C99.9354 3.18759 100.162 4.04596 100.162 5.03889C100.162 6.02254 99.9354 6.88092 99.4821 7.61401C99.0288 8.33783 98.3997 8.9039 97.5948 9.3122C96.7899 9.71123 95.8601 9.91075 94.8054 9.91075H90.3923ZM92.6405 8.05944H94.6944C95.342 8.05944 95.9017 7.9388 96.3735 7.69753C96.8546 7.44698 97.2247 7.09435 97.4837 6.63964C97.752 6.18494 97.8862 5.65135 97.8862 5.03889C97.8862 4.41715 97.752 3.88356 97.4837 3.43814C97.2247 2.98343 96.8546 2.63544 96.3735 2.39417C95.9017 2.14362 95.342 2.01834 94.6944 2.01834H92.6405V8.05944Z" fill="black"/>
<path d="M103.925 4.09236H108.602V5.84623H103.925V4.09236ZM104.092 8.1012H109.379V9.91075H101.858V0.167035H109.199V1.97658H104.092V8.1012Z" fill="black"/>
<path d="M111.168 9.91075V0.167035H113.028L118.759 7.18251H117.857V0.167035H120.077V9.91075H118.232L112.486 2.89527H113.388V9.91075H111.168Z" fill="black"/>
<path d="M127.025 10.0778C126.275 10.0778 125.577 9.95714 124.929 9.71587C124.291 9.46532 123.736 9.11269 123.264 8.65798C122.792 8.20328 122.422 7.66969 122.154 7.05723C121.895 6.44477 121.765 5.77199 121.765 5.03889C121.765 4.30579 121.895 3.63301 122.154 3.02055C122.422 2.40809 122.792 1.8745 123.264 1.4198C123.745 0.965091 124.305 0.617101 124.943 0.375828C125.581 0.125276 126.28 0 127.039 0C127.88 0 128.639 0.148476 129.314 0.445427C129.999 0.733098 130.573 1.15997 131.035 1.72603L129.592 3.06231C129.259 2.68184 128.889 2.39881 128.482 2.21321C128.075 2.01834 127.631 1.9209 127.15 1.9209C126.696 1.9209 126.28 1.99514 125.901 2.14362C125.521 2.29209 125.193 2.50553 124.915 2.78392C124.638 3.06231 124.42 3.39174 124.263 3.77221C124.115 4.15268 124.041 4.5749 124.041 5.03889C124.041 5.50288 124.115 5.9251 124.263 6.30557C124.42 6.68604 124.638 7.01547 124.915 7.29386C125.193 7.57225 125.521 7.78569 125.901 7.93416C126.28 8.08264 126.696 8.15688 127.15 8.15688C127.631 8.15688 128.075 8.06408 128.482 7.87849C128.889 7.68361 129.259 7.3913 129.592 7.00155L131.035 8.33783C130.573 8.9039 129.999 9.3354 129.314 9.63235C128.639 9.92931 127.876 10.0778 127.025 10.0778Z" fill="black"/>
<path d="M132.553 9.91075V0.167035H134.802V9.91075H132.553Z" fill="black"/>
<path d="M135.83 9.91075L140.16 0.167035H142.38L146.724 9.91075H144.365L140.812 1.30844H141.7L138.134 9.91075H135.83ZM137.995 7.82281L138.592 6.1107H143.588L144.198 7.82281H137.995Z" fill="black"/>
<path d="M0.323953 24.7003V14.9566H4.73701C5.7917 14.9566 6.72149 15.1607 7.52639 15.5691C8.33128 15.9681 8.9604 16.5295 9.41373 17.2533C9.86706 17.9771 10.0937 18.8355 10.0937 19.8285C10.0937 20.8121 9.86706 21.6705 9.41373 22.4036C8.9604 23.1274 8.33128 23.6935 7.52639 24.1018C6.72149 24.5008 5.7917 24.7003 4.73701 24.7003H0.323953ZM2.57211 22.849H4.62599C5.2736 22.849 5.83333 22.7284 6.30517 22.4871C6.78625 22.2365 7.15632 21.8839 7.41537 21.4292C7.68367 20.9745 7.81782 20.4409 7.81782 19.8285C7.81782 19.2067 7.68367 18.6731 7.41537 18.2277C7.15632 17.773 6.78625 17.425 6.30517 17.1837C5.83333 16.9332 5.2736 16.8079 4.62599 16.8079H2.57211V22.849Z" fill="black"/>
<path d="M13.8569 18.8819H18.5336V20.6358H13.8569V18.8819ZM14.0235 22.8908H19.3108V24.7003H11.7892V14.9566H19.1304V16.7661H14.0235V22.8908Z" fill="black"/>
<path d="M21.0996 24.7003V14.9566H23.3477V22.8629H28.2188V24.7003H21.0996Z" fill="black"/>
<path d="M33.405 24.7003V14.9566H37.6099C38.4796 14.9566 39.229 15.1004 39.8581 15.3881C40.4872 15.6665 40.9729 16.0702 41.3152 16.5991C41.6575 17.128 41.8287 17.7591 41.8287 18.4922C41.8287 19.216 41.6575 19.8424 41.3152 20.3713C40.9729 20.9003 40.4872 21.3086 39.8581 21.5962C39.229 21.8746 38.4796 22.0138 37.6099 22.0138H34.654L35.6532 20.9977V24.7003H33.405ZM35.6532 21.2482L34.654 20.1764H37.485C38.1789 20.1764 38.697 20.028 39.0393 19.731C39.3816 19.4341 39.5528 19.0211 39.5528 18.4922C39.5528 17.9539 39.3816 17.5364 39.0393 17.2394C38.697 16.9425 38.1789 16.794 37.485 16.794H34.654L35.6532 15.7222V21.2482Z" fill="black"/>
<path d="M45.5015 18.8819H50.1782V20.6358H45.5015V18.8819ZM45.668 22.8908H50.9553V24.7003H43.4337V14.9566H50.7749V16.7661H45.668V22.8908Z" fill="black"/>
<path d="M52.7441 24.7003V14.9566H56.949C57.8187 14.9566 58.5681 15.1004 59.1972 15.3881C59.8263 15.6665 60.312 16.0702 60.6543 16.5991C60.9966 17.128 61.1678 17.7591 61.1678 18.4922C61.1678 19.216 60.9966 19.8424 60.6543 20.3713C60.312 20.891 59.8263 21.29 59.1972 21.5684C58.5681 21.8468 57.8187 21.986 56.949 21.986H53.9931L54.9923 20.9977V24.7003H52.7441ZM58.9196 24.7003L56.4911 21.1647H58.8919L61.3482 24.7003H58.9196ZM54.9923 21.2482L53.9931 20.1904H56.8241C57.518 20.1904 58.0361 20.0419 58.3784 19.7449C58.7207 19.4387 58.8919 19.0211 58.8919 18.4922C58.8919 17.9539 58.7207 17.5364 58.3784 17.2394C58.0361 16.9425 57.518 16.794 56.8241 16.794H53.9931L54.9923 15.7222V21.2482Z" fill="black"/>
<path d="M67.2649 24.8673C65.8864 24.8673 64.8086 24.4822 64.0314 23.712C63.2543 22.9418 62.8657 21.8421 62.8657 20.4131V14.9566H65.1139V20.3296C65.1139 21.2575 65.3035 21.9257 65.6829 22.334C66.0622 22.7423 66.5941 22.9464 67.2788 22.9464C67.9634 22.9464 68.4954 22.7423 68.8747 22.334C69.254 21.9257 69.4437 21.2575 69.4437 20.3296V14.9566H71.6641V20.4131C71.6641 21.8421 71.2755 22.9418 70.4984 23.712C69.7212 24.4822 68.6434 24.8673 67.2649 24.8673ZM66.0159 14.1632L67.8894 12.1588H70.2208L67.709 14.1632H66.0159Z" fill="black"/>
<path d="M74.5518 19.8145C74.1817 19.8145 73.8625 19.6893 73.5942 19.4387C73.3352 19.1789 73.2057 18.8494 73.2057 18.4504C73.2057 18.0514 73.3352 17.7312 73.5942 17.49C73.8625 17.2394 74.1817 17.1141 74.5518 17.1141C74.9311 17.1141 75.2503 17.2394 75.5093 17.49C75.7684 17.7312 75.8979 18.0514 75.8979 18.4504C75.8979 18.8494 75.7684 19.1789 75.5093 19.4387C75.2503 19.6893 74.9311 19.8145 74.5518 19.8145ZM74.5518 24.8117C74.1817 24.8117 73.8625 24.6864 73.5942 24.4358C73.3352 24.176 73.2057 23.8466 73.2057 23.4475C73.2057 23.0485 73.3352 22.7284 73.5942 22.4871C73.8625 22.2365 74.1817 22.1113 74.5518 22.1113C74.9311 22.1113 75.2503 22.2365 75.5093 22.4871C75.7684 22.7284 75.8979 23.0485 75.8979 23.4475C75.8979 23.8466 75.7684 24.176 75.5093 24.4358C75.2503 24.6864 74.9311 24.8117 74.5518 24.8117Z" fill="black"/>
<path d="M0 36.8799V29.8767H3.02226C3.64733 29.8767 4.18595 29.98 4.63813 30.1868C5.0903 30.3869 5.43941 30.677 5.68545 31.0572C5.93148 31.4374 6.0545 31.8909 6.0545 32.4178C6.0545 32.9381 5.93148 33.3883 5.68545 33.7685C5.43941 34.1487 5.0903 34.4421 4.63813 34.6489C4.18595 34.849 3.64733 34.949 3.02226 34.949H0.897702L1.61586 34.2187V36.8799H0ZM1.61586 34.3988L0.897702 33.6284H2.93249C3.43122 33.6284 3.8036 33.5217 4.04963 33.3083C4.29567 33.0948 4.41869 32.798 4.41869 32.4178C4.41869 32.031 4.29567 31.7309 4.04963 31.5174C3.8036 31.304 3.43122 31.1973 2.93249 31.1973H0.897702L1.61586 30.4269V34.3988Z" fill="black"/>
<path d="M7.20811 36.8799V29.8767H8.82398V35.5593H12.325V36.8799H7.20811Z" fill="black"/>
<path d="M12.3492 36.8799L15.4612 29.8767H17.0571L20.1791 36.8799H18.4835L15.93 30.697H16.5684L14.0049 36.8799H12.3492ZM13.9052 35.3792L14.3341 34.1487H17.9249L18.3638 35.3792H13.9052Z" fill="black"/>
<path d="M21.9992 36.8799V31.1973H19.7649V29.8767H25.8493V31.1973H23.615V36.8799H21.9992Z" fill="black"/>
<path d="M25.4504 36.8799L28.5624 29.8767H30.1584L33.2804 36.8799H31.5847L29.0312 30.697H29.6696L27.1062 36.8799H25.4504ZM27.0064 35.3792L27.4353 34.1487H31.0261L31.465 35.3792H27.0064Z" fill="black"/>
<path d="M35.5009 33.0281H38.8524V34.3287H35.5009V33.0281ZM35.6206 36.8799H34.0048V29.8767H39.2813V31.1773H35.6206V36.8799Z" fill="black"/>
<path d="M43.6983 37C43.1464 37 42.6344 36.91 42.1622 36.7299C41.6968 36.5498 41.2911 36.2963 40.9454 35.9695C40.6062 35.6427 40.3402 35.2592 40.1474 34.819C39.9612 34.3788 39.8681 33.8985 39.8681 33.3783C39.8681 32.8581 39.9612 32.3778 40.1474 31.9376C40.3402 31.4974 40.6095 31.1139 40.9553 30.7871C41.3011 30.4603 41.7067 30.2068 42.1722 30.0267C42.6377 29.8466 43.1431 29.7566 43.6883 29.7566C44.2403 29.7566 44.7456 29.8466 45.2045 30.0267C45.6699 30.2068 46.0722 30.4603 46.4114 30.7871C46.7571 31.1139 47.0265 31.4974 47.2193 31.9376C47.4121 32.3712 47.5086 32.8514 47.5086 33.3783C47.5086 33.8985 47.4121 34.3821 47.2193 34.829C47.0265 35.2692 46.7571 35.6527 46.4114 35.9795C46.0722 36.2997 45.6699 36.5498 45.2045 36.7299C44.7456 36.91 44.2436 37 43.6983 37ZM43.6883 35.6194C44.0009 35.6194 44.2868 35.566 44.5461 35.4593C44.8121 35.3526 45.0449 35.1992 45.2444 34.9991C45.4438 34.799 45.5968 34.5622 45.7032 34.2887C45.8162 34.0153 45.8727 33.7118 45.8727 33.3783C45.8727 33.0448 45.8162 32.7413 45.7032 32.4679C45.5968 32.1944 45.4438 31.9576 45.2444 31.7575C45.0515 31.5574 44.8221 31.404 44.5561 31.2973C44.2901 31.1906 44.0009 31.1372 43.6883 31.1372C43.3758 31.1372 43.0865 31.1906 42.8206 31.2973C42.5612 31.404 42.3318 31.5574 42.1323 31.7575C41.9328 31.9576 41.7766 32.1944 41.6635 32.4679C41.5571 32.7413 41.5039 33.0448 41.5039 33.3783C41.5039 33.7051 41.5571 34.0086 41.6635 34.2887C41.7766 34.5622 41.9295 34.799 42.1223 34.9991C42.3218 35.1992 42.5546 35.3526 42.8206 35.4593C43.0865 35.566 43.3758 35.6194 43.6883 35.6194Z" fill="black"/>
<path d="M48.7229 36.8799V29.8767H51.7452C52.3703 29.8767 52.9089 29.98 53.3611 30.1868C53.8133 30.3869 54.1624 30.677 54.4084 31.0572C54.6544 31.4374 54.7774 31.8909 54.7774 32.4178C54.7774 32.9381 54.6544 33.3883 54.4084 33.7685C54.1624 34.142 53.8133 34.4288 53.3611 34.6289C52.9089 34.829 52.3703 34.929 51.7452 34.929H49.6207L50.3388 34.2187V36.8799H48.7229ZM53.1616 36.8799L51.4161 34.3387H53.1416L54.9071 36.8799H53.1616ZM50.3388 34.3988L49.6207 33.6384H51.6554C52.1542 33.6384 52.5265 33.5317 52.7726 33.3183C53.0186 33.0982 53.1416 32.798 53.1416 32.4178C53.1416 32.031 53.0186 31.7309 52.7726 31.5174C52.5265 31.304 52.1542 31.1973 51.6554 31.1973H49.6207L50.3388 30.4269V34.3988Z" fill="black"/>
<path d="M56.0577 36.8799V29.8767H57.3943L60.3667 34.819H59.6585L62.581 29.8767H63.9076L63.9275 36.8799H62.4114L62.4015 32.2077H62.6807L60.3467 36.1396H59.6186L57.2347 32.2077H57.5738V36.8799H56.0577Z" fill="black"/>
<path d="M64.6664 36.8799L67.7785 29.8767H69.3744L72.4964 36.8799H70.8007L68.2473 30.697H68.8856L66.3222 36.8799H64.6664ZM66.2225 35.3792L66.6514 34.1487H70.2422L70.681 35.3792H66.2225Z" fill="black"/>
<path d="M76.0456 36.8799V29.8767H77.6615V36.8799H76.0456Z" fill="black"/>
<path d="M79.3185 36.8799V29.8767H80.655L84.7745 34.919H84.1262V29.8767H85.7221V36.8799H84.3955L80.266 31.8376H80.9144V36.8799H79.3185Z" fill="black"/>
<path d="M88.8203 36.8799V31.1973H86.586V29.8767H92.6705V31.1973H90.4362V36.8799H88.8203Z" fill="black"/>
<path d="M95.0261 32.698H98.3875V33.9586H95.0261V32.698ZM95.1458 35.5793H98.946V36.8799H93.5399V29.8767H98.8164V31.1773H95.1458V35.5793Z" fill="black"/>
<path d="M100.232 36.8799V29.8767H103.254C103.879 29.8767 104.418 29.98 104.87 30.1868C105.322 30.3869 105.671 30.677 105.917 31.0572C106.163 31.4374 106.286 31.8909 106.286 32.4178C106.286 32.9381 106.163 33.3883 105.917 33.7685C105.671 34.142 105.322 34.4288 104.87 34.6289C104.418 34.829 103.879 34.929 103.254 34.929H101.129L101.848 34.2187V36.8799H100.232ZM104.67 36.8799L102.925 34.3387H104.65L106.416 36.8799H104.67ZM101.848 34.3988L101.129 33.6384H103.164C103.663 33.6384 104.035 33.5317 104.281 33.3183C104.527 33.0982 104.65 32.798 104.65 32.4178C104.65 32.031 104.527 31.7309 104.281 31.5174C104.035 31.304 103.663 31.1973 103.164 31.1973H101.129L101.848 30.4269V34.3988Z" fill="black"/>
<path d="M106.649 36.8799L109.761 29.8767H111.357L114.479 36.8799H112.783L110.23 30.697H110.868L108.305 36.8799H106.649ZM108.205 35.3792L108.634 34.1487H112.225L112.663 35.3792H108.205Z" fill="black"/>
<path d="M118.447 37C117.909 37 117.407 36.9133 116.941 36.7399C116.482 36.5598 116.083 36.3063 115.744 35.9795C115.405 35.6527 115.139 35.2692 114.946 34.829C114.76 34.3888 114.667 33.9052 114.667 33.3783C114.667 32.8514 114.76 32.3678 114.946 31.9276C115.139 31.4874 115.405 31.1039 115.744 30.7771C116.09 30.4503 116.492 30.2001 116.951 30.0267C117.41 29.8466 117.912 29.7566 118.457 29.7566C119.062 29.7566 119.608 29.8633 120.093 30.0767C120.585 30.2835 120.997 30.5903 121.33 30.9972L120.292 31.9576C120.053 31.6842 119.787 31.4807 119.495 31.3473C119.202 31.2073 118.883 31.1372 118.537 31.1372C118.211 31.1372 117.912 31.1906 117.639 31.2973C117.367 31.404 117.131 31.5574 116.931 31.7575C116.732 31.9576 116.575 32.1944 116.462 32.4679C116.356 32.7413 116.303 33.0448 116.303 33.3783C116.303 33.7118 116.356 34.0153 116.462 34.2887C116.575 34.5622 116.732 34.799 116.931 34.9991C117.131 35.1992 117.367 35.3526 117.639 35.4593C117.912 35.566 118.211 35.6194 118.537 35.6194C118.883 35.6194 119.202 35.5527 119.495 35.4193C119.787 35.2792 120.053 35.0691 120.292 34.789L121.33 35.7494C120.997 36.1563 120.585 36.4664 120.093 36.6799C119.608 36.8933 119.059 37 118.447 37Z" fill="black"/>
<path d="M123.799 36.8799V31.1973H121.565V29.8767H127.649V31.1973H125.415V36.8799H123.799Z" fill="black"/>
<path d="M128.519 36.8799V29.8767H130.135V36.8799H128.519Z" fill="black"/>
<path d="M133.857 36.8799L130.845 29.8767H132.59L135.223 36.0796H134.196L136.869 29.8767H138.475L135.453 36.8799H133.857Z" fill="black"/>
<path d="M137.907 36.8799L141.019 29.8767H142.615L145.737 36.8799H144.041L141.488 30.697H142.126L139.562 36.8799H137.907ZM139.463 35.3792L139.892 34.1487H143.482L143.921 35.3792H139.463Z" fill="black"/>
<path d="M94.5017 18.7784L91.1581 15.4089L92.5436 14.0564L98.2413 19.7981L92.5659 25.5173L91.1581 24.0986L94.5017 20.7291H86.7585V18.7784H94.5017Z" fill="#ED1C28"/>
<path d="M109.812 18.7784L106.468 15.4089L107.854 14.0564L113.552 19.7981L107.876 25.5173L106.468 24.0986L109.812 20.7291H102.069V18.7784H109.812Z" fill="#ED1C28"/>
<path d="M125.123 18.7784L121.779 15.4089L123.164 14.0564L128.862 19.7981L123.187 25.5173L121.779 24.0986L125.123 20.7291H117.379V18.7784H125.123Z" fill="#ED1C28"/>
<path d="M140.433 18.7784L137.089 15.4089L138.475 14.0564L144.172 19.7981L138.497 25.5173L137.089 24.0986L140.433 20.7291H132.69V18.7784H140.433Z" fill="#ED1C28"/>
</svg>
